# xmcd
#
# Track frame offsets: 
#        150
#        11716
#        28745
#        46814
#        62065
#        75339
#        93470
#        112763
#        126903
#        140788
#        160160
#        174700
#        193111
#        208831
#        219320
#        238209
#        252658
#        270815
#        291128
#        306165
#
# Disc length: 4297 seconds
#
# Revision: 3
# Processed by: cddbd v1.5.1PL0 Copyright (c) Steve Scherf et al.
# Submitted via: ExactAudioCopy v0.95a5
#
DISCID=2210c714
DTITLE=Various Artist - Amiga a Go-Go Vol. 1
DYEAR=2000
DGENRE=Easy Listening
TTITLE0=Theo Schumann Combo - Derby
TTITLE1=Uschi Brüning - Welch ein Zufall
TTITLE2=Modern Soul Band - Hallo Carlos
TTITLE3=Gerd Michaelis Chor - Es bleibt die Sonne
TTITLE4=Klaus Lenz - Glückliches Mädchen
TTITLE5=Günther Fischer - Philly-Nova
TTITLE6=Manfred Krug - Komm und spiel mit mir
TTITLE7=Orchester Walter Kubiczeck - Tentakel
TTITLE8=Chris Doerk and Uve Schikora Combo - Glaub nicht
TTITLE9=Veronika Fischer and Band - Philodendron
TTITLE10=Evgeni Kantschev Quintett - Sonnenbrand
TTITLE11=Reinhard Lakomy - Jede Blume blüht nur einmal auf
TTITLE12=Orchester Günter Gollasch - Es steht ein Haus in New Orleans
TTITLE13=Theo Schumann Combo - Don Gil
TTITLE14=Uschi Brüning  - Hochzeitsnacht
TTITLE15=Günther Fischer - Premiere
TTITLE16=Modern Soul Band - 5 nach halb 7
TTITLE17=Manfred Krug - Morgen (prev. unissued)
TTITLE18=Klaus Lenz - Grashalme
TTITLE19=Panta Rei - Finis
EXTD=
EXTT0=
EXTT1=
EXTT2=
EXTT3=
EXTT4=
EXTT5=
EXTT6=
EXTT7=
EXTT8=
EXTT9=
EXTT10=
EXTT11=
EXTT12=
EXTT13=
EXTT14=
EXTT15=
EXTT16=
EXTT17=
EXTT18=
EXTT19=
PLAYORDER=
